<svg width="1584" height="540" viewBox="0 0 1584 540" xmlns="http://www.w3.org/2000/svg">
  <defs>
    <style>
      .eyebrow {
        font-family: 'Outfit', Georgia, sans-serif;
        font-size: 11px; font-weight: 400; letter-spacing: 4px;
        fill: rgba(255,255,255,0.5); text-anchor: middle;
        animation: fadeUp 1s 0.1s cubic-bezier(0.16,1,0.3,1) both;
      }
      .title {
        font-family: 'Outfit', Georgia, sans-serif;
        font-size: 58px; font-weight: 900; letter-spacing: -1.5px;
        fill: #ffffff; text-anchor: middle;
        animation: fadeUp 1s 0.2s cubic-bezier(0.16,1,0.3,1) both;
      }
      .subtitle-en {
        font-family: 'Outfit', Georgia, sans-serif;
        font-size: 15px; font-weight: 300; letter-spacing: 2px;
        fill: rgba(255,255,255,0.45); text-anchor: middle;
        animation: fadeUp 1s 0.3s cubic-bezier(0.16,1,0.3,1) both;
      }
      .chip-bg { fill: rgba(255,255,255,0.05); }
      .chip-bd { fill: none; stroke: rgba(255,255,255,0.12); stroke-width: 1; }
      .chip-txt {
        font-family: 'Outfit', Georgia, sans-serif;
        font-size: 17px; font-weight: 400;
        fill: rgba(255,255,255,0.8);
        dominant-baseline: central; text-anchor: start;
      }
      .row1 { animation: slideLeft  28s linear infinite; }
      .row2 { animation: slideRight 34s linear infinite; }
      @keyframes slideLeft  { from { transform: translateX(0); }    to { transform: translateX(-50%); } }
      @keyframes slideRight { from { transform: translateX(-50%); } to { transform: translateX(0); }    }
      @keyframes fadeUp {
        from { opacity:0; transform: translateY(14px); }
        to   { opacity:1; transform: translateY(0); }
      }
    </style>
    <linearGradient id="fL" x1="0%" y1="0%" x2="100%" y2="0%">
      <stop offset="0%" stop-color="#000" stop-opacity="1"/>
      <stop offset="100%" stop-color="#000" stop-opacity="0"/>
    </linearGradient>
    <linearGradient id="fR" x1="0%" y1="0%" x2="100%" y2="0%">
      <stop offset="0%" stop-color="#000" stop-opacity="0"/>
      <stop offset="100%" stop-color="#000" stop-opacity="1"/>
    </linearGradient>
    <linearGradient id="dv" x1="0%" y1="0%" x2="100%" y2="0%">
      <stop offset="0%"   stop-color="#fff" stop-opacity="0"/>
      <stop offset="25%"  stop-color="#fff" stop-opacity="0.35"/>
      <stop offset="50%"  stop-color="#fff" stop-opacity="0.7"/>
      <stop offset="75%"  stop-color="#fff" stop-opacity="0.35"/>
      <stop offset="100%" stop-color="#fff" stop-opacity="0"/>
    </linearGradient>
    <linearGradient id="gl" x1="0" y1="0" x2="0.3" y2="1">
      <stop offset="0%"   stop-color="#fff" stop-opacity="0.06"/>
      <stop offset="100%" stop-color="#fff" stop-opacity="0"/>
    </linearGradient>
    <clipPath id="r1c"><rect x="0" y="296" width="1584" height="84"/></clipPath>
    <clipPath id="r2c"><rect x="0" y="396" width="1584" height="84"/></clipPath>
    <clipPath id="bc"><rect width="1584" height="540" rx="20"/></clipPath>
  </defs>

  <g clip-path="url(#bc)">
    <rect width="1584" height="540" fill="#000" rx="20"/>
    <rect width="1584" height="540" fill="url(#gl)" rx="20"/>
    <rect width="1584" height="540" rx="20" fill="none" stroke="rgba(255,255,255,0.1)" stroke-width="1"/>

    <text x="792" y="115" class="eyebrow">✦   portfolio   ✦</text>
    <text x="792" y="195" class="title">Front-end Developer</text>
    <text x="792" y="232" class="subtitle-en">turning users' needs into reality</text>

    <rect x="0" y="284" width="1584" height="1" fill="url(#dv)"/>

    <!-- Row 1 -->
    <g clip-path="url(#r1c)">
      <g class="row1">
        <rect x="8" y="300" width="170" height="68" rx="34" class="chip-bg"/><rect x="8" y="300" width="170" height="68" rx="34" class="chip-bd"/><g transform="translate(27,327)"><rect width="14" height="14" fill="#F7DF1E" rx="2"/><text x="2" y="11" font-size="9" font-weight="bold" fill="#000" font-family="Arial">JS</text></g><text x="52" y="334" class="chip-txt">JavaScript</text>
        <rect x="196" y="300" width="170" height="68" rx="34" class="chip-bg"/><rect x="196" y="300" width="170" height="68" rx="34" class="chip-bd"/><g transform="translate(215,327)"><rect width="14" height="14" fill="#3178C6" rx="2"/><text x="1.5" y="11" font-size="9" font-weight="bold" fill="#fff" font-family="Arial">TS</text></g><text x="240" y="334" class="chip-txt">TypeScript</text>
        <rect x="384" y="300" width="170" height="68" rx="34" class="chip-bg"/><rect x="384" y="300" width="170" height="68" rx="34" class="chip-bd"/><g transform="translate(403,327)"><circle cx="7" cy="7" r="7" fill="#222"/><ellipse cx="7" cy="7" rx="7" ry="2.8" fill="none" stroke="#61DAFB" stroke-width="1.2"/><ellipse cx="7" cy="7" rx="7" ry="2.8" fill="none" stroke="#61DAFB" stroke-width="1.2" transform="rotate(60 7 7)"/><ellipse cx="7" cy="7" rx="7" ry="2.8" fill="none" stroke="#61DAFB" stroke-width="1.2" transform="rotate(120 7 7)"/><circle cx="7" cy="7" r="1.5" fill="#61DAFB"/></g><text x="428" y="334" class="chip-txt">React</text>
        <rect x="572" y="300" width="170" height="68" rx="34" class="chip-bg"/><rect x="572" y="300" width="170" height="68" rx="34" class="chip-bd"/><g transform="translate(591,327)"><circle r="7" fill="#3776AB"/></g><text x="616" y="334" class="chip-txt">Python</text>
        <rect x="760" y="300" width="170" height="68" rx="34" class="chip-bg"/><rect x="760" y="300" width="170" height="68" rx="34" class="chip-bd"/><g transform="translate(779,327)"><circle r="7" fill="#ED8B00"/></g><text x="804" y="334" class="chip-txt">Java</text>
        <rect x="948" y="300" width="170" height="68" rx="34" class="chip-bg"/><rect x="948" y="300" width="170" height="68" rx="34" class="chip-bd"/><g transform="translate(967,327)"><circle r="7" fill="#A8B9CC"/></g><text x="992" y="334" class="chip-txt">C++</text>
        <rect x="1136" y="300" width="170" height="68" rx="34" class="chip-bg"/><rect x="1136" y="300" width="170" height="68" rx="34" class="chip-bd"/><g transform="translate(1155,327)"><path d="M7 0L13.5 3.8v7.4L7 15 0.5 11.2V3.8z" fill="#339933"/><text x="2.5" y="11" font-size="7" font-weight="bold" fill="#fff" font-family="Arial">JS</text></g><text x="1180" y="334" class="chip-txt">Node.js</text>
        <rect x="1324" y="300" width="170" height="68" rx="34" class="chip-bg"/><rect x="1324" y="300" width="170" height="68" rx="34" class="chip-bd"/><g transform="translate(1343,327)"><circle r="7" fill="#E34F26"/></g><text x="1368" y="334" class="chip-txt">HTML</text>
        <rect x="1512" y="300" width="170" height="68" rx="34" class="chip-bg"/><rect x="1512" y="300" width="170" height="68" rx="34" class="chip-bd"/><g transform="translate(1531,327)"><circle r="7" fill="#1572B6"/></g><text x="1556" y="334" class="chip-txt">CSS</text>
        <rect x="1700" y="300" width="170" height="68" rx="34" class="chip-bg"/><rect x="1700" y="300" width="170" height="68" rx="34" class="chip-bd"/><g transform="translate(1719,327)"><rect x="2" y="0" width="4" height="4.7" rx="2" fill="#F24E1E"/><rect x="6" y="0" width="4" height="4.7" rx="2" fill="#FF7262"/><rect x="2" y="4.7" width="4" height="4.6" rx="2" fill="#A259FF"/><rect x="2" y="9.3" width="4" height="4.7" rx="2" fill="#0ACF83"/><circle cx="8" cy="7" r="2" fill="#1ABCFE"/></g><text x="1744" y="334" class="chip-txt">Figma</text>
        <rect x="1888" y="300" width="170" height="68" rx="34" class="chip-bg"/><rect x="1888" y="300" width="170" height="68" rx="34" class="chip-bd"/><g transform="translate(1907,327)"><rect width="14" height="14" fill="#001E36" rx="2"/><text x="1" y="11" font-size="8" font-weight="bold" fill="#31A8FF" font-family="Arial">Ps</text></g><text x="1932" y="334" class="chip-txt">Photoshop</text>
        <rect x="2076" y="300" width="170" height="68" rx="34" class="chip-bg"/><rect x="2076" y="300" width="170" height="68" rx="34" class="chip-bd"/><g transform="translate(2095,327)"><rect width="14" height="14" fill="#330000" rx="2"/><text x="1.5" y="11" font-size="8" font-weight="bold" fill="#FF9A00" font-family="Arial">Ai</text></g><text x="2120" y="334" class="chip-txt">Illustrator</text>
        <rect x="2264" y="300" width="170" height="68" rx="34" class="chip-bg"/><rect x="2264" y="300" width="170" height="68" rx="34" class="chip-bd"/><g transform="translate(2283,327)"><rect width="14" height="14" fill="#F7DF1E" rx="2"/><text x="2" y="11" font-size="9" font-weight="bold" fill="#000" font-family="Arial">JS</text></g><text x="2308" y="334" class="chip-txt">JavaScript</text>
        <rect x="2452" y="300" width="170" height="68" rx="34" class="chip-bg"/><rect x="2452" y="300" width="170" height="68" rx="34" class="chip-bd"/><g transform="translate(2471,327)"><rect width="14" height="14" fill="#3178C6" rx="2"/><text x="1.5" y="11" font-size="9" font-weight="bold" fill="#fff" font-family="Arial">TS</text></g><text x="2496" y="334" class="chip-txt">TypeScript</text>
        <rect x="2640" y="300" width="170" height="68" rx="34" class="chip-bg"/><rect x="2640" y="300" width="170" height="68" rx="34" class="chip-bd"/><g transform="translate(2659,327)"><circle cx="7" cy="7" r="7" fill="#222"/><ellipse cx="7" cy="7" rx="7" ry="2.8" fill="none" stroke="#61DAFB" stroke-width="1.2"/><ellipse cx="7" cy="7" rx="7" ry="2.8" fill="none" stroke="#61DAFB" stroke-width="1.2" transform="rotate(60 7 7)"/><ellipse cx="7" cy="7" rx="7" ry="2.8" fill="none" stroke="#61DAFB" stroke-width="1.2" transform="rotate(120 7 7)"/><circle cx="7" cy="7" r="1.5" fill="#61DAFB"/></g><text x="2684" y="334" class="chip-txt">React</text>
        <rect x="2828" y="300" width="170" height="68" rx="34" class="chip-bg"/><rect x="2828" y="300" width="170" height="68" rx="34" class="chip-bd"/><g transform="translate(2847,327)"><circle r="7" fill="#3776AB"/></g><text x="2872" y="334" class="chip-txt">Python</text>
        <rect x="3016" y="300" width="170" height="68" rx="34" class="chip-bg"/><rect x="3016" y="300" width="170" height="68" rx="34" class="chip-bd"/><g transform="translate(3035,327)"><circle r="7" fill="#ED8B00"/></g><text x="3060" y="334" class="chip-txt">Java</text>
        <rect x="3204" y="300" width="170" height="68" rx="34" class="chip-bg"/><rect x="3204" y="300" width="170" height="68" rx="34" class="chip-bd"/><g transform="translate(3223,327)"><circle r="7" fill="#A8B9CC"/></g><text x="3248" y="334" class="chip-txt">C++</text>
        <rect x="3392" y="300" width="170" height="68" rx="34" class="chip-bg"/><rect x="3392" y="300" width="170" height="68" rx="34" class="chip-bd"/><g transform="translate(3411,327)"><path d="M7 0L13.5 3.8v7.4L7 15 0.5 11.2V3.8z" fill="#339933"/><text x="2.5" y="11" font-size="7" font-weight="bold" fill="#fff" font-family="Arial">JS</text></g><text x="3436" y="334" class="chip-txt">Node.js</text>
        <rect x="3580" y="300" width="170" height="68" rx="34" class="chip-bg"/><rect x="3580" y="300" width="170" height="68" rx="34" class="chip-bd"/><g transform="translate(3599,327)"><circle r="7" fill="#E34F26"/></g><text x="3624" y="334" class="chip-txt">HTML</text>
        <rect x="3768" y="300" width="170" height="68" rx="34" class="chip-bg"/><rect x="3768" y="300" width="170" height="68" rx="34" class="chip-bd"/><g transform="translate(3787,327)"><circle r="7" fill="#1572B6"/></g><text x="3812" y="334" class="chip-txt">CSS</text>
        <rect x="3956" y="300" width="170" height="68" rx="34" class="chip-bg"/><rect x="3956" y="300" width="170" height="68" rx="34" class="chip-bd"/><g transform="translate(3975,327)"><rect x="2" y="0" width="4" height="4.7" rx="2" fill="#F24E1E"/><rect x="6" y="0" width="4" height="4.7" rx="2" fill="#FF7262"/><rect x="2" y="4.7" width="4" height="4.6" rx="2" fill="#A259FF"/><rect x="2" y="9.3" width="4" height="4.7" rx="2" fill="#0ACF83"/><circle cx="8" cy="7" r="2" fill="#1ABCFE"/></g><text x="4000" y="334" class="chip-txt">Figma</text>
        <rect x="4144" y="300" width="170" height="68" rx="34" class="chip-bg"/><rect x="4144" y="300" width="170" height="68" rx="34" class="chip-bd"/><g transform="translate(4163,327)"><rect width="14" height="14" fill="#001E36" rx="2"/><text x="1" y="11" font-size="8" font-weight="bold" fill="#31A8FF" font-family="Arial">Ps</text></g><text x="4188" y="334" class="chip-txt">Photoshop</text>
        <rect x="4332" y="300" width="170" height="68" rx="34" class="chip-bg"/><rect x="4332" y="300" width="170" height="68" rx="34" class="chip-bd"/><g transform="translate(4351,327)"><rect width="14" height="14" fill="#330000" rx="2"/><text x="1.5" y="11" font-size="8" font-weight="bold" fill="#FF9A00" font-family="Arial">Ai</text></g><text x="4376" y="334" class="chip-txt">Illustrator</text>
      </g>
    </g>

    <!-- Row 2 -->
    <g clip-path="url(#r2c)">
      <g class="row2">
        <rect x="8" y="400" width="170" height="68" rx="34" class="chip-bg"/><rect x="8" y="400" width="170" height="68" rx="34" class="chip-bd"/><g transform="translate(27,427)"><rect width="14" height="14" fill="#330000" rx="2"/><text x="1.5" y="11" font-size="8" font-weight="bold" fill="#FF9A00" font-family="Arial">Ai</text></g><text x="52" y="434" class="chip-txt">Illustrator</text>
        <rect x="196" y="400" width="170" height="68" rx="34" class="chip-bg"/><rect x="196" y="400" width="170" height="68" rx="34" class="chip-bd"/><g transform="translate(215,427)"><rect width="14" height="14" fill="#001E36" rx="2"/><text x="1" y="11" font-size="8" font-weight="bold" fill="#31A8FF" font-family="Arial">Ps</text></g><text x="240" y="434" class="chip-txt">Photoshop</text>
        <rect x="384" y="400" width="170" height="68" rx="34" class="chip-bg"/><rect x="384" y="400" width="170" height="68" rx="34" class="chip-bd"/><g transform="translate(403,427)"><rect x="2" y="0" width="4" height="4.7" rx="2" fill="#F24E1E"/><rect x="6" y="0" width="4" height="4.7" rx="2" fill="#FF7262"/><rect x="2" y="4.7" width="4" height="4.6" rx="2" fill="#A259FF"/><rect x="2" y="9.3" width="4" height="4.7" rx="2" fill="#0ACF83"/><circle cx="8" cy="7" r="2" fill="#1ABCFE"/></g><text x="428" y="434" class="chip-txt">Figma</text>
        <rect x="572" y="400" width="170" height="68" rx="34" class="chip-bg"/><rect x="572" y="400" width="170" height="68" rx="34" class="chip-bd"/><g transform="translate(591,427)"><circle r="7" fill="#1572B6"/></g><text x="616" y="434" class="chip-txt">CSS</text>
        <rect x="760" y="400" width="170" height="68" rx="34" class="chip-bg"/><rect x="760" y="400" width="170" height="68" rx="34" class="chip-bd"/><g transform="translate(779,427)"><circle r="7" fill="#E34F26"/></g><text x="804" y="434" class="chip-txt">HTML</text>
        <rect x="948" y="400" width="170" height="68" rx="34" class="chip-bg"/><rect x="948" y="400" width="170" height="68" rx="34" class="chip-bd"/><g transform="translate(967,427)"><path d="M7 0L13.5 3.8v7.4L7 15 0.5 11.2V3.8z" fill="#339933"/><text x="2.5" y="11" font-size="7" font-weight="bold" fill="#fff" font-family="Arial">JS</text></g><text x="992" y="434" class="chip-txt">Node.js</text>
        <rect x="1136" y="400" width="170" height="68" rx="34" class="chip-bg"/><rect x="1136" y="400" width="170" height="68" rx="34" class="chip-bd"/><g transform="translate(1155,427)"><circle r="7" fill="#A8B9CC"/></g><text x="1180" y="434" class="chip-txt">C++</text>
        <rect x="1324" y="400" width="170" height="68" rx="34" class="chip-bg"/><rect x="1324" y="400" width="170" height="68" rx="34" class="chip-bd"/><g transform="translate(1343,427)"><circle r="7" fill="#ED8B00"/></g><text x="1368" y="434" class="chip-txt">Java</text>
        <rect x="1512" y="400" width="170" height="68" rx="34" class="chip-bg"/><rect x="1512" y="400" width="170" height="68" rx="34" class="chip-bd"/><g transform="translate(1531,427)"><circle r="7" fill="#3776AB"/></g><text x="1556" y="434" class="chip-txt">Python</text>
        <rect x="1700" y="400" width="170" height="68" rx="34" class="chip-bg"/><rect x="1700" y="400" width="170" height="68" rx="34" class="chip-bd"/><g transform="translate(1719,427)"><circle cx="7" cy="7" r="7" fill="#222"/><ellipse cx="7" cy="7" rx="7" ry="2.8" fill="none" stroke="#61DAFB" stroke-width="1.2"/><ellipse cx="7" cy="7" rx="7" ry="2.8" fill="none" stroke="#61DAFB" stroke-width="1.2" transform="rotate(60 7 7)"/><ellipse cx="7" cy="7" rx="7" ry="2.8" fill="none" stroke="#61DAFB" stroke-width="1.2" transform="rotate(120 7 7)"/><circle cx="7" cy="7" r="1.5" fill="#61DAFB"/></g><text x="1744" y="434" class="chip-txt">React</text>
        <rect x="1888" y="400" width="170" height="68" rx="34" class="chip-bg"/><rect x="1888" y="400" width="170" height="68" rx="34" class="chip-bd"/><g transform="translate(1907,427)"><rect width="14" height="14" fill="#3178C6" rx="2"/><text x="1.5" y="11" font-size="9" font-weight="bold" fill="#fff" font-family="Arial">TS</text></g><text x="1932" y="434" class="chip-txt">TypeScript</text>
        <rect x="2076" y="400" width="170" height="68" rx="34" class="chip-bg"/><rect x="2076" y="400" width="170" height="68" rx="34" class="chip-bd"/><g transform="translate(2095,427)"><rect width="14" height="14" fill="#F7DF1E" rx="2"/><text x="2" y="11" font-size="9" font-weight="bold" fill="#000" font-family="Arial">JS</text></g><text x="2120" y="434" class="chip-txt">JavaScript</text>
        <rect x="2264" y="400" width="170" height="68" rx="34" class="chip-bg"/><rect x="2264" y="400" width="170" height="68" rx="34" class="chip-bd"/><g transform="translate(2283,427)"><rect width="14" height="14" fill="#330000" rx="2"/><text x="1.5" y="11" font-size="8" font-weight="bold" fill="#FF9A00" font-family="Arial">Ai</text></g><text x="2308" y="434" class="chip-txt">Illustrator</text>
        <rect x="2452" y="400" width="170" height="68" rx="34" class="chip-bg"/><rect x="2452" y="400" width="170" height="68" rx="34" class="chip-bd"/><g transform="translate(2471,427)"><rect width="14" height="14" fill="#001E36" rx="2"/><text x="1" y="11" font-size="8" font-weight="bold" fill="#31A8FF" font-family="Arial">Ps</text></g><text x="2496" y="434" class="chip-txt">Photoshop</text>
        <rect x="2640" y="400" width="170" height="68" rx="34" class="chip-bg"/><rect x="2640" y="400" width="170" height="68" rx="34" class="chip-bd"/><g transform="translate(2659,427)"><rect x="2" y="0" width="4" height="4.7" rx="2" fill="#F24E1E"/><rect x="6" y="0" width="4" height="4.7" rx="2" fill="#FF7262"/><rect x="2" y="4.7" width="4" height="4.6" rx="2" fill="#A259FF"/><rect x="2" y="9.3" width="4" height="4.7" rx="2" fill="#0ACF83"/><circle cx="8" cy="7" r="2" fill="#1ABCFE"/></g><text x="2684" y="434" class="chip-txt">Figma</text>
        <rect x="2828" y="400" width="170" height="68" rx="34" class="chip-bg"/><rect x="2828" y="400" width="170" height="68" rx="34" class="chip-bd"/><g transform="translate(2847,427)"><circle r="7" fill="#1572B6"/></g><text x="2872" y="434" class="chip-txt">CSS</text>
        <rect x="3016" y="400" width="170" height="68" rx="34" class="chip-bg"/><rect x="3016" y="400" width="170" height="68" rx="34" class="chip-bd"/><g transform="translate(3035,427)"><circle r="7" fill="#E34F26"/></g><text x="3060" y="434" class="chip-txt">HTML</text>
        <rect x="3204" y="400" width="170" height="68" rx="34" class="chip-bg"/><rect x="3204" y="400" width="170" height="68" rx="34" class="chip-bd"/><g transform="translate(3223,427)"><path d="M7 0L13.5 3.8v7.4L7 15 0.5 11.2V3.8z" fill="#339933"/><text x="2.5" y="11" font-size="7" font-weight="bold" fill="#fff" font-family="Arial">JS</text></g><text x="3248" y="434" class="chip-txt">Node.js</text>
        <rect x="3392" y="400" width="170" height="68" rx="34" class="chip-bg"/><rect x="3392" y="400" width="170" height="68" rx="34" class="chip-bd"/><g transform="translate(3411,427)"><circle r="7" fill="#A8B9CC"/></g><text x="3436" y="434" class="chip-txt">C++</text>
        <rect x="3580" y="400" width="170" height="68" rx="34" class="chip-bg"/><rect x="3580" y="400" width="170" height="68" rx="34" class="chip-bd"/><g transform="translate(3599,427)"><circle r="7" fill="#ED8B00"/></g><text x="3624" y="434" class="chip-txt">Java</text>
        <rect x="3768" y="400" width="170" height="68" rx="34" class="chip-bg"/><rect x="3768" y="400" width="170" height="68" rx="34" class="chip-bd"/><g transform="translate(3787,427)"><circle r="7" fill="#3776AB"/></g><text x="3812" y="434" class="chip-txt">Python</text>
        <rect x="3956" y="400" width="170" height="68" rx="34" class="chip-bg"/><rect x="3956" y="400" width="170" height="68" rx="34" class="chip-bd"/><g transform="translate(3975,427)"><circle cx="7" cy="7" r="7" fill="#222"/><ellipse cx="7" cy="7" rx="7" ry="2.8" fill="none" stroke="#61DAFB" stroke-width="1.2"/><ellipse cx="7" cy="7" rx="7" ry="2.8" fill="none" stroke="#61DAFB" stroke-width="1.2" transform="rotate(60 7 7)"/><ellipse cx="7" cy="7" rx="7" ry="2.8" fill="none" stroke="#61DAFB" stroke-width="1.2" transform="rotate(120 7 7)"/><circle cx="7" cy="7" r="1.5" fill="#61DAFB"/></g><text x="4000" y="434" class="chip-txt">React</text>
        <rect x="4144" y="400" width="170" height="68" rx="34" class="chip-bg"/><rect x="4144" y="400" width="170" height="68" rx="34" class="chip-bd"/><g transform="translate(4163,427)"><rect width="14" height="14" fill="#3178C6" rx="2"/><text x="1.5" y="11" font-size="9" font-weight="bold" fill="#fff" font-family="Arial">TS</text></g><text x="4188" y="434" class="chip-txt">TypeScript</text>
        <rect x="4332" y="400" width="170" height="68" rx="34" class="chip-bg"/><rect x="4332" y="400" width="170" height="68" rx="34" class="chip-bd"/><g transform="translate(4351,427)"><rect width="14" height="14" fill="#F7DF1E" rx="2"/><text x="2" y="11" font-size="9" font-weight="bold" fill="#000" font-family="Arial">JS</text></g><text x="4376" y="434" class="chip-txt">JavaScript</text>
      </g>
    </g>

    <rect x="0"    y="283" width="100" height="257" fill="url(#fL)"/>
    <rect x="1484" y="283" width="100" height="257" fill="url(#fR)"/>
  </g>
</svg>
